# xmcd
#
# Track frame offsets:
#  150
#  18412
#  37272
#  58315
#  76817
#  94842
#  113515
#  136962
#  165390
#  178525
#  206165
#
# Disc length: 3088 seconds
#
# Revision: 5
# Processed by: cddbd v1.5.1PL2 Copyright (c) Steve Scherf et al.
# Submitted via: Collectorz.com_Music_Collector 6.11
#
DISCID=8f0c0e0b
DTITLE=Hancock, Butch - Eats Away The Night
DYEAR=1994
DGENRE=Country
TTITLE0=To Each His Own
TTITLE1=Moanin' Of The Midnight Train
TTITLE2=Eileen
TTITLE3=One Kiss
TTITLE4=Pumpkineater
TTITLE5=If You Were A Bluebird
TTITLE6=Junkyard In The Sun
TTITLE7=Boxcars
TTITLE8=Baby Be Mine
TTITLE9=Welcome To The Real World Kid
TTITLE10=Eats Away The Night
EXTD=
EXTT0=
EXTT1=
EXTT2=
EXTT3=
EXTT4=
EXTT5=
EXTT6=
EXTT7=
EXTT8=
EXTT9=
EXTT10=
PLAYORDER=
